<svg width="16" height="17" viewBox="0 0 16 17" fill="none" xmlns="http://www.w3.org/2000/svg">
<g clip-path="url(#clip0_336_1805)">
<path d="M9.33325 3.16666H13.3333V7.16666H9.33325V3.16666Z" stroke="#1F1F29" stroke-linecap="round" stroke-linejoin="round"/>
<path d="M2.66675 9.83334H6.66675V13.8333H2.66675V9.83334Z" stroke="#1F1F29" stroke-linecap="round" stroke-linejoin="round"/>
<path d="M9.33325 11.8333C9.33325 12.3638 9.54397 12.8725 9.91904 13.2476C10.2941 13.6226 10.8028 13.8333 11.3333 13.8333C11.8637 13.8333 12.3724 13.6226 12.7475 13.2476C13.1225 12.8725 13.3333 12.3638 13.3333 11.8333C13.3333 11.3029 13.1225 10.7942 12.7475 10.4191C12.3724 10.0441 11.8637 9.83334 11.3333 9.83334C10.8028 9.83334 10.2941 10.0441 9.91904 10.4191C9.54397 10.7942 9.33325 11.3029 9.33325 11.8333Z" stroke="#1F1F29" stroke-linecap="round" stroke-linejoin="round"/>
<path d="M2.66675 5.16666C2.66675 5.4293 2.71848 5.68937 2.81899 5.93202C2.9195 6.17467 3.06682 6.39515 3.25253 6.58087C3.43825 6.76659 3.65873 6.91391 3.90138 7.01442C4.14403 7.11493 4.4041 7.16666 4.66675 7.16666C4.92939 7.16666 5.18946 7.11493 5.43212 7.01442C5.67477 6.91391 5.89524 6.76659 6.08096 6.58087C6.26668 6.39515 6.414 6.17467 6.51451 5.93202C6.61502 5.68937 6.66675 5.4293 6.66675 5.16666C6.66675 4.90401 6.61502 4.64394 6.51451 4.40129C6.414 4.15864 6.26668 3.93816 6.08096 3.75244C5.89524 3.56673 5.67477 3.41941 5.43212 3.3189C5.18946 3.21839 4.92939 3.16666 4.66675 3.16666C4.4041 3.16666 4.14403 3.21839 3.90138 3.3189C3.65873 3.41941 3.43825 3.56673 3.25253 3.75244C3.06682 3.93816 2.9195 4.15864 2.81899 4.40129C2.71848 4.64394 2.66675 4.90401 2.66675 5.16666Z" stroke="#1F1F29" stroke-linecap="round" stroke-linejoin="round"/>
</g>
<defs>
<clipPath id="clip0_336_1805">
<rect width="16" height="16" fill="white" transform="translate(0 0.5)"/>
</clipPath>
</defs>
</svg>
