<svg width="16" height="17" viewBox="0 0 16 17" fill="none" xmlns="http://www.w3.org/2000/svg">
<g clip-path="url(#clip0_330_771)">
<path d="M9.33325 3.16675H13.3333V7.16675H9.33325V3.16675Z" stroke="white" stroke-linecap="round" stroke-linejoin="round"/>
<path d="M2.66675 9.83325H6.66675V13.8333H2.66675V9.83325Z" stroke="white" stroke-linecap="round" stroke-linejoin="round"/>
<path d="M9.33325 11.8333C9.33325 12.3637 9.54397 12.8724 9.91904 13.2475C10.2941 13.6225 10.8028 13.8333 11.3333 13.8333C11.8637 13.8333 12.3724 13.6225 12.7475 13.2475C13.1225 12.8724 13.3333 12.3637 13.3333 11.8333C13.3333 11.3028 13.1225 10.7941 12.7475 10.419C12.3724 10.044 11.8637 9.83325 11.3333 9.83325C10.8028 9.83325 10.2941 10.044 9.91904 10.419C9.54397 10.7941 9.33325 11.3028 9.33325 11.8333Z" stroke="white" stroke-linecap="round" stroke-linejoin="round"/>
<path d="M2.66675 5.16675C2.66675 5.42939 2.71848 5.68946 2.81899 5.93212C2.9195 6.17477 3.06682 6.39524 3.25253 6.58096C3.43825 6.76668 3.65873 6.914 3.90138 7.01451C4.14403 7.11502 4.4041 7.16675 4.66675 7.16675C4.92939 7.16675 5.18946 7.11502 5.43212 7.01451C5.67477 6.914 5.89524 6.76668 6.08096 6.58096C6.26668 6.39524 6.414 6.17477 6.51451 5.93212C6.61502 5.68946 6.66675 5.42939 6.66675 5.16675C6.66675 4.9041 6.61502 4.64403 6.51451 4.40138C6.414 4.15873 6.26668 3.93825 6.08096 3.75253C5.89524 3.56682 5.67477 3.4195 5.43212 3.31899C5.18946 3.21848 4.92939 3.16675 4.66675 3.16675C4.4041 3.16675 4.14403 3.21848 3.90138 3.31899C3.65873 3.4195 3.43825 3.56682 3.25253 3.75253C3.06682 3.93825 2.9195 4.15873 2.81899 4.40138C2.71848 4.64403 2.66675 4.9041 2.66675 5.16675Z" stroke="white" stroke-linecap="round" stroke-linejoin="round"/>
</g>
<defs>
<clipPath id="clip0_330_771">
<rect width="16" height="16" fill="white" transform="translate(0 0.5)"/>
</clipPath>
</defs>
</svg>
