<svg width="40" height="40" viewBox="0 0 40 40" fill="none" xmlns="http://www.w3.org/2000/svg">
<circle cx="20" cy="20" r="20" fill="url(#paint0_linear_40_918)"/>
<circle cx="20" cy="20" r="20" fill="white" fill-opacity="0.88"/>
<g clip-path="url(#clip0_40_918)">
<path d="M16.667 15.8333C16.667 16.7174 17.0182 17.5652 17.6433 18.1904C18.2684 18.8155 19.1163 19.1667 20.0003 19.1667C20.8844 19.1667 21.7322 18.8155 22.3573 18.1904C22.9825 17.5652 23.3337 16.7174 23.3337 15.8333C23.3337 14.9493 22.9825 14.1014 22.3573 13.4763C21.7322 12.8512 20.8844 12.5 20.0003 12.5C19.1163 12.5 18.2684 12.8512 17.6433 13.4763C17.0182 14.1014 16.667 14.9493 16.667 15.8333Z" stroke="url(#paint1_linear_40_918)" stroke-width="1.5" stroke-linecap="round" stroke-linejoin="round"/>
<path d="M15 27.5V25.8333C15 24.9493 15.3512 24.1014 15.9763 23.4763C16.6014 22.8512 17.4493 22.5 18.3333 22.5H21.6667C22.5507 22.5 23.3986 22.8512 24.0237 23.4763C24.6488 24.1014 25 24.9493 25 25.8333V27.5" stroke="url(#paint2_linear_40_918)" stroke-width="1.5" stroke-linecap="round" stroke-linejoin="round"/>
</g>
<defs>
<linearGradient id="paint0_linear_40_918" x1="40" y1="0" x2="0" y2="40" gradientUnits="userSpaceOnUse">
<stop stop-color="#7570FF"/>
<stop offset="1" stop-color="#BC70FF"/>
</linearGradient>
<linearGradient id="paint1_linear_40_918" x1="23.3337" y1="12.5" x2="16.667" y2="19.1667" gradientUnits="userSpaceOnUse">
<stop stop-color="#7570FF"/>
<stop offset="1" stop-color="#BC70FF"/>
</linearGradient>
<linearGradient id="paint2_linear_40_918" x1="25" y1="22.5" x2="21" y2="30.5" gradientUnits="userSpaceOnUse">
<stop stop-color="#7570FF"/>
<stop offset="1" stop-color="#BC70FF"/>
</linearGradient>
<clipPath id="clip0_40_918">
<rect width="20" height="20" fill="white" transform="translate(10 10)"/>
</clipPath>
</defs>
</svg>
