<svg width="20" height="20" viewBox="0 0 20 20" fill="none" xmlns="http://www.w3.org/2000/svg">
<mask id="mask0_0_900" style="mask-type:alpha" maskUnits="userSpaceOnUse" x="0" y="0" width="20" height="20">
<rect width="20" height="20" fill="#D9D9D9"/>
</mask>
<g mask="url(#mask0_0_900)">
<path d="M11.8791 10L7.23077 5.35165C7.07692 5.1978 7 5.01099 7 4.79121C7 4.57143 7.07692 4.38462 7.23077 4.23077C7.38462 4.07692 7.57143 4 7.79121 4C8.01099 4 8.1978 4.07692 8.35165 4.23077L13.2802 9.15934C13.4011 9.28022 13.489 9.41209 13.544 9.55495C13.5989 9.6978 13.6264 9.84615 13.6264 10C13.6264 10.1538 13.5989 10.3022 13.544 10.4451C13.489 10.5879 13.4011 10.7198 13.2802 10.8407L8.35165 15.7692C8.1978 15.9231 8.01099 16 7.79121 16C7.57143 16 7.38462 15.9231 7.23077 15.7692C7.07692 15.6154 7 15.4286 7 15.2088C7 14.989 7.07692 14.8022 7.23077 14.6484L11.8791 10Z" fill="#5A5A76"/>
</g>
</svg>
