<svg width="28" height="30" viewBox="0 0 28 30" fill="none" xmlns="http://www.w3.org/2000/svg">
<path fill-rule="evenodd" clip-rule="evenodd" d="M17.362 1.47727C15.0307 0.131274 12.1584 0.131273 9.82707 1.47727L3.76742 4.97584C1.43613 6.32183 0 8.80929 0 11.5012V18.4985C0 21.1905 1.43613 23.6779 3.76742 25.0239L9.82706 28.5225C12.1584 29.8685 15.0307 29.8685 17.362 28.5225L23.4217 25.0239C25.7529 23.6779 27.1891 21.1904 27.1891 18.4985V11.5012C27.1891 8.80929 25.7529 6.32183 23.4217 4.97585L17.362 1.47727ZM13.5945 3.21874C12.2485 3.21874 11.0228 3.92645 8.57125 5.34186L7.74214 5.82055C5.29063 7.23594 4.06488 7.94363 3.39189 9.10928C2.71891 10.2749 2.71891 11.6903 2.71891 14.5211V15.4786C2.71891 18.3094 2.71891 19.7248 3.39189 20.8904C4.06488 22.0561 5.29062 22.7637 7.74212 24.1791L7.74213 24.1791L8.57124 24.6578C11.0228 26.0732 12.2485 26.7809 13.5945 26.7809C14.9405 26.7809 16.1663 26.0732 18.6178 24.6578L19.4469 24.1791C21.8984 22.7637 23.1242 22.0561 23.7972 20.8904C24.4702 19.7248 24.4702 18.3094 24.4702 15.4786V14.5211C24.4702 11.6903 24.4702 10.2749 23.7972 9.10928C23.1242 7.94363 21.8984 7.23594 19.4469 5.82055L18.6178 5.34186C16.1663 3.92645 14.9405 3.21874 13.5945 3.21874Z" fill="url(#paint0_linear_118_476)"/>
<mask id="mask0_118_476" style="mask-type:alpha" maskUnits="userSpaceOnUse" x="5" y="6" width="17" height="18">
<path d="M12.3314 8.43271C12.7489 7.62 12.9577 7.21364 13.2383 7.08206C13.4827 6.9675 13.7652 6.9675 14.0096 7.08206C14.2902 7.21364 14.499 7.62 14.9165 8.43271L16.4934 11.5017C16.5726 11.6558 16.6122 11.7329 16.6643 11.7999C16.7106 11.8594 16.7641 11.9129 16.8236 11.9592C16.8906 12.0113 16.9677 12.0509 17.1218 12.1301L20.1908 13.707C21.0035 14.1246 21.4099 14.3333 21.5415 14.614C21.656 14.8583 21.656 15.1409 21.5415 15.3852C21.4099 15.6658 21.0035 15.8746 20.1908 16.2921L17.1218 17.869C16.9677 17.9482 16.8906 17.9878 16.8236 18.0399C16.7641 18.0862 16.7106 18.1397 16.6643 18.1992C16.6122 18.2662 16.5726 18.3433 16.4934 18.4974L14.9165 21.5664C14.499 22.3791 14.2902 22.7855 14.0096 22.9171C13.7652 23.0316 13.4827 23.0316 13.2383 22.9171C12.9577 22.7855 12.7489 22.3791 12.3314 21.5664L10.7545 18.4974C10.6753 18.3433 10.6357 18.2662 10.5836 18.1992C10.5373 18.1397 10.4838 18.0862 10.4243 18.0399C10.3573 17.9878 10.2802 17.9482 10.1261 17.869L7.0571 16.2921C6.24439 15.8746 5.83803 15.6658 5.70645 15.3852C5.59189 15.1409 5.59189 14.8583 5.70645 14.614C5.83803 14.3333 6.24439 14.1246 7.0571 13.707L10.1261 12.1301C10.2802 12.0509 10.3573 12.0113 10.4243 11.9592C10.4838 11.9129 10.5373 11.8594 10.5836 11.7999C10.6357 11.7329 10.6753 11.6558 10.7545 11.5017L12.3314 8.43271Z" fill="black"/>
</mask>
<g mask="url(#mask0_118_476)">
<path d="M4.521 9.75537L13.6033 14.9958V25.4864L4.5213 20.2427L4.521 9.75537Z" fill="#8C8C8C"/>
<path d="M22.6816 9.75537L13.5994 14.9958V25.4864L22.6813 20.2427L22.6816 9.75537Z" fill="#666666"/>
<path d="M13.5995 4.51172L22.6814 9.7554L13.5995 14.9949L4.5166 9.7554H4.51752L13.5995 4.51172Z" fill="#B3B3B3"/>
</g>
<g style="mix-blend-mode:color">
<rect x="5.00098" y="5.46143" width="20" height="22" rx="8" fill="url(#paint1_linear_118_476)"/>
</g>
<defs>
<linearGradient id="paint0_linear_118_476" x1="27.1891" y1="0.467773" x2="-1.81063" y2="27.5965" gradientUnits="userSpaceOnUse">
<stop stop-color="#7570FF"/>
<stop offset="1" stop-color="#BC70FF"/>
</linearGradient>
<linearGradient id="paint1_linear_118_476" x1="25.001" y1="5.46143" x2="3.10052" y2="25.3709" gradientUnits="userSpaceOnUse">
<stop stop-color="#7570FF"/>
<stop offset="1" stop-color="#BC70FF"/>
</linearGradient>
</defs>
</svg>
