<svg width="16" height="17" viewBox="0 0 16 17" fill="none" xmlns="http://www.w3.org/2000/svg">
<g clip-path="url(#clip0_40_997)">
<path d="M3.99967 7.16675C3.64605 7.16675 3.30691 7.30722 3.05687 7.55727C2.80682 7.80732 2.66634 8.14646 2.66634 8.50008C2.66634 8.8537 2.80682 9.19284 3.05687 9.44289C3.30691 9.69294 3.64605 9.83341 3.99967 9.83341C4.3533 9.83341 4.69243 9.69294 4.94248 9.44289C5.19253 9.19284 5.33301 8.8537 5.33301 8.50008C5.33301 8.14646 5.19253 7.80732 4.94248 7.55727C4.69243 7.30722 4.3533 7.16675 3.99967 7.16675Z" stroke="#1F1F29" stroke-linecap="round" stroke-linejoin="round"/>
<path d="M11.9997 3.83325C11.6461 3.83325 11.3069 3.97373 11.0569 4.22378C10.8068 4.47382 10.6663 4.81296 10.6663 5.16659C10.6663 5.52021 10.8068 5.85935 11.0569 6.10939C11.3069 6.35944 11.6461 6.49992 11.9997 6.49992C12.3533 6.49992 12.6924 6.35944 12.9425 6.10939C13.1925 5.85935 13.333 5.52021 13.333 5.16659C13.333 4.81296 13.1925 4.47382 12.9425 4.22378C12.6924 3.97373 12.3533 3.83325 11.9997 3.83325Z" stroke="#1F1F29" stroke-linecap="round" stroke-linejoin="round"/>
<path d="M11.9997 10.5C11.6461 10.5 11.3069 10.6405 11.0569 10.8905C10.8068 11.1406 10.6663 11.4797 10.6663 11.8333C10.6663 12.187 10.8068 12.5261 11.0569 12.7761C11.3069 13.0262 11.6461 13.1667 11.9997 13.1667C12.3533 13.1667 12.6924 13.0262 12.9425 12.7761C13.1925 12.5261 13.333 12.187 13.333 11.8333C13.333 11.4797 13.1925 11.1406 12.9425 10.8905C12.6924 10.6405 12.3533 10.5 11.9997 10.5Z" stroke="#1F1F29" stroke-linecap="round" stroke-linejoin="round"/>
<path d="M10.667 5.16675H9.33366C8.98004 5.16675 8.6409 5.30722 8.39085 5.55727C8.1408 5.80732 8.00033 6.14646 8.00033 6.50008V10.5001C8.00033 10.8537 8.1408 11.1928 8.39085 11.4429C8.6409 11.6929 8.98004 11.8334 9.33366 11.8334H10.667" stroke="#1F1F29" stroke-linecap="round" stroke-linejoin="round"/>
<path d="M8 8.5H5.33333" stroke="#1F1F29" stroke-linecap="round" stroke-linejoin="round"/>
</g>
<defs>
<clipPath id="clip0_40_997">
<rect width="16" height="16" fill="white" transform="matrix(0 1 -1 0 16 0.5)"/>
</clipPath>
</defs>
</svg>
