<svg width="16" height="16" viewBox="0 0 16 16" fill="none" xmlns="http://www.w3.org/2000/svg">
<g clip-path="url(#clip0_94_998)">
<path d="M4.00008 3.33337H12.0001C12.3537 3.33337 12.6928 3.47385 12.9429 3.7239C13.1929 3.97395 13.3334 4.31309 13.3334 4.66671V12.6667C13.3334 13.0203 13.1929 13.3595 12.9429 13.6095C12.6928 13.8596 12.3537 14 12.0001 14H4.00008C3.64646 14 3.30732 13.8596 3.05727 13.6095C2.80722 13.3595 2.66675 13.0203 2.66675 12.6667V4.66671C2.66675 4.31309 2.80722 3.97395 3.05727 3.7239C3.30732 3.47385 3.64646 3.33337 4.00008 3.33337Z" stroke="white" stroke-linecap="round" stroke-linejoin="round"/>
<path d="M6 10.6666C6.66667 11.1113 7.33333 11.3333 8 11.3333C8.66667 11.3333 9.33333 11.1113 10 10.6666" stroke="white" stroke-linecap="round" stroke-linejoin="round"/>
<path d="M5.99992 4.66667L5.33325 2" stroke="white" stroke-linecap="round" stroke-linejoin="round"/>
<path d="M10 4.66667L10.6667 2" stroke="white" stroke-linecap="round" stroke-linejoin="round"/>
<path d="M6 8.00004V7.33337" stroke="white" stroke-linecap="round" stroke-linejoin="round"/>
<path d="M10 8.00004V7.33337" stroke="white" stroke-linecap="round" stroke-linejoin="round"/>
</g>
<defs>
<clipPath id="clip0_94_998">
<rect width="16" height="16" fill="white"/>
</clipPath>
</defs>
</svg>
