<svg width="16" height="17" viewBox="0 0 16 17" fill="none" xmlns="http://www.w3.org/2000/svg">
<g clip-path="url(#clip0_371_576)">
<path d="M4.00008 3.83325H12.0001C12.3537 3.83325 12.6928 3.97373 12.9429 4.22378C13.1929 4.47382 13.3334 4.81296 13.3334 5.16659V13.1666C13.3334 13.5202 13.1929 13.8593 12.9429 14.1094C12.6928 14.3594 12.3537 14.4999 12.0001 14.4999H4.00008C3.64646 14.4999 3.30732 14.3594 3.05727 14.1094C2.80722 13.8593 2.66675 13.5202 2.66675 13.1666V5.16659C2.66675 4.81296 2.80722 4.47382 3.05727 4.22378C3.30732 3.97373 3.64646 3.83325 4.00008 3.83325Z" stroke="white" stroke-linecap="round" stroke-linejoin="round"/>
<path d="M6 11.1667C6.66667 11.6114 7.33333 11.8334 8 11.8334C8.66667 11.8334 9.33333 11.6114 10 11.1667" stroke="white" stroke-linecap="round" stroke-linejoin="round"/>
<path d="M5.99992 5.16667L5.33325 2.5" stroke="white" stroke-linecap="round" stroke-linejoin="round"/>
<path d="M10 5.16667L10.6667 2.5" stroke="white" stroke-linecap="round" stroke-linejoin="round"/>
<path d="M6 8.49992V7.83325" stroke="white" stroke-linecap="round" stroke-linejoin="round"/>
<path d="M10 8.49992V7.83325" stroke="white" stroke-linecap="round" stroke-linejoin="round"/>
</g>
<defs>
<clipPath id="clip0_371_576">
<rect width="16" height="16" fill="white" transform="translate(0 0.5)"/>
</clipPath>
</defs>
</svg>
