<svg width="16" height="17" viewBox="0 0 16 17" fill="none" xmlns="http://www.w3.org/2000/svg">
<g clip-path="url(#clip0_23_300)">
<path d="M3.99992 7.1665C3.6463 7.1665 3.30716 7.30698 3.05711 7.55703C2.80706 7.80708 2.66659 8.14622 2.66659 8.49984C2.66659 8.85346 2.80706 9.1926 3.05711 9.44265C3.30716 9.69269 3.6463 9.83317 3.99992 9.83317C4.35354 9.83317 4.69268 9.69269 4.94273 9.44265C5.19278 9.1926 5.33325 8.85346 5.33325 8.49984C5.33325 8.14622 5.19278 7.80708 4.94273 7.55703C4.69268 7.30698 4.35354 7.1665 3.99992 7.1665Z" stroke="white" stroke-linecap="round" stroke-linejoin="round"/>
<path d="M11.9999 3.8335C11.6463 3.8335 11.3072 3.97397 11.0571 4.22402C10.8071 4.47407 10.6666 4.81321 10.6666 5.16683C10.6666 5.52045 10.8071 5.85959 11.0571 6.10964C11.3072 6.35969 11.6463 6.50016 11.9999 6.50016C12.3535 6.50016 12.6927 6.35969 12.9427 6.10964C13.1928 5.85959 13.3333 5.52045 13.3333 5.16683C13.3333 4.81321 13.1928 4.47407 12.9427 4.22402C12.6927 3.97397 12.3535 3.8335 11.9999 3.8335Z" stroke="white" stroke-linecap="round" stroke-linejoin="round"/>
<path d="M11.9999 10.5C11.6463 10.5 11.3072 10.6405 11.0571 10.8905C10.8071 11.1406 10.6666 11.4797 10.6666 11.8333C10.6666 12.187 10.8071 12.5261 11.0571 12.7761C11.3072 13.0262 11.6463 13.1667 11.9999 13.1667C12.3535 13.1667 12.6927 13.0262 12.9427 12.7761C13.1928 12.5261 13.3333 12.187 13.3333 11.8333C13.3333 11.4797 13.1928 11.1406 12.9427 10.8905C12.6927 10.6405 12.3535 10.5 11.9999 10.5Z" stroke="white" stroke-linecap="round" stroke-linejoin="round"/>
<path d="M10.6667 5.1665H9.33341C8.97979 5.1665 8.64065 5.30698 8.39061 5.55703C8.14056 5.80708 8.00008 6.14622 8.00008 6.49984V10.4998C8.00008 10.8535 8.14056 11.1926 8.39061 11.4426C8.64065 11.6927 8.97979 11.8332 9.33341 11.8332H10.6667" stroke="white" stroke-linecap="round" stroke-linejoin="round"/>
<path d="M8 8.5H5.33333" stroke="white" stroke-linecap="round" stroke-linejoin="round"/>
</g>
<defs>
<clipPath id="clip0_23_300">
<rect width="16" height="16" fill="white" transform="matrix(0 1 -1 0 16 0.5)"/>
</clipPath>
</defs>
</svg>
