<svg width="16" height="17" viewBox="0 0 16 17" fill="none" xmlns="http://www.w3.org/2000/svg">
<g clip-path="url(#clip0_94_897)">
<path d="M4.00008 3.83337H12.0001C12.3537 3.83337 12.6928 3.97385 12.9429 4.2239C13.1929 4.47395 13.3334 4.81309 13.3334 5.16671V13.1667C13.3334 13.5203 13.1929 13.8595 12.9429 14.1095C12.6928 14.3596 12.3537 14.5 12.0001 14.5H4.00008C3.64646 14.5 3.30732 14.3596 3.05727 14.1095C2.80722 13.8595 2.66675 13.5203 2.66675 13.1667V5.16671C2.66675 4.81309 2.80722 4.47395 3.05727 4.2239C3.30732 3.97385 3.64646 3.83337 4.00008 3.83337Z" stroke="#1F1F29" stroke-linecap="round" stroke-linejoin="round"/>
<path d="M6 11.1666C6.66667 11.6113 7.33333 11.8333 8 11.8333C8.66667 11.8333 9.33333 11.6113 10 11.1666" stroke="#1F1F29" stroke-linecap="round" stroke-linejoin="round"/>
<path d="M5.99992 5.16667L5.33325 2.5" stroke="#1F1F29" stroke-linecap="round" stroke-linejoin="round"/>
<path d="M10 5.16667L10.6667 2.5" stroke="#1F1F29" stroke-linecap="round" stroke-linejoin="round"/>
<path d="M6 8.50004V7.83337" stroke="#1F1F29" stroke-linecap="round" stroke-linejoin="round"/>
<path d="M10 8.50004V7.83337" stroke="#1F1F29" stroke-linecap="round" stroke-linejoin="round"/>
</g>
<defs>
<clipPath id="clip0_94_897">
<rect width="16" height="16" fill="white" transform="translate(0 0.5)"/>
</clipPath>
</defs>
</svg>
