<svg width="20" height="20" viewBox="0 0 20 20" fill="none" xmlns="http://www.w3.org/2000/svg">
<mask id="mask0_0_2450" style="mask-type:alpha" maskUnits="userSpaceOnUse" x="0" y="0" width="20" height="20">
<rect width="20" height="20" fill="#D9D9D9"/>
</mask>
<g mask="url(#mask0_0_2450)">
<path d="M6.5 17C6.0875 17 5.73438 16.8531 5.44062 16.5594C5.14687 16.2656 5 15.9125 5 15.5V5.5H4.75C4.5375 5.5 4.35938 5.42855 4.21563 5.28565C4.07188 5.14273 4 4.96565 4 4.7544C4 4.54313 4.07188 4.36458 4.21563 4.21875C4.35938 4.07292 4.5375 4 4.75 4H8V3.75C8 3.5375 8.07188 3.35937 8.21563 3.21562C8.35938 3.07187 8.5375 3 8.75 3H11.25C11.4625 3 11.6406 3.07187 11.7844 3.21562C11.9281 3.35937 12 3.5375 12 3.75V4H15.25C15.4625 4 15.6406 4.07145 15.7844 4.21435C15.9281 4.35727 16 4.53435 16 4.7456C16 4.95687 15.9281 5.13542 15.7844 5.28125C15.6406 5.42708 15.4625 5.5 15.25 5.5H15V15.491C15 15.9137 14.8531 16.2708 14.5594 16.5625C14.2656 16.8542 13.9125 17 13.5 17H6.5ZM13.5 5.5H6.5V15.5H13.5V5.5ZM8 14H9.5V7H8V14ZM10.5 14H12V7H10.5V14Z" fill="#FF1945"/>
</g>
</svg>
