<svg width="16" height="17" viewBox="0 0 16 17" fill="none" xmlns="http://www.w3.org/2000/svg">
<g clip-path="url(#clip0_23_744)">
<path d="M14.0001 9.83333L12.0001 7.83333H7.33341C7.1566 7.83333 6.98703 7.7631 6.86201 7.63807C6.73699 7.51305 6.66675 7.34348 6.66675 7.16667V3.16667C6.66675 2.98986 6.73699 2.82029 6.86201 2.69526C6.98703 2.57024 7.1566 2.5 7.33341 2.5H13.3334C13.5102 2.5 13.6798 2.57024 13.8048 2.69526C13.9298 2.82029 14.0001 2.98986 14.0001 3.16667V9.83333Z" stroke="white" stroke-linecap="round" stroke-linejoin="round"/>
<path d="M9.33333 10.5V11.8333C9.33333 12.0101 9.2631 12.1797 9.13807 12.3047C9.01305 12.4298 8.84348 12.5 8.66667 12.5H4L2 14.5V7.83334C2 7.65653 2.07024 7.48696 2.19526 7.36193C2.32029 7.23691 2.48986 7.16667 2.66667 7.16667H4" stroke="white" stroke-linecap="round" stroke-linejoin="round"/>
</g>
<defs>
<clipPath id="clip0_23_744">
<rect width="16" height="16" fill="white" transform="translate(0 0.5)"/>
</clipPath>
</defs>
</svg>
