<svg width="8" height="8" viewBox="0 0 8 8" fill="none" xmlns="http://www.w3.org/2000/svg">
<path d="M3.99636 4.89839L1.06946 7.82529C0.948135 7.94662 0.801537 8.00475 0.629663 7.9997C0.45779 7.99464 0.311192 7.93145 0.18987 7.81013C0.0685472 7.68881 0.00788596 7.53968 0.00788596 7.36275C0.00788596 7.18583 0.0685472 7.0367 0.18987 6.91538L3.10161 4.00364L0.174704 1.07674C0.0533819 0.955414 -0.00475179 0.806288 0.000303306 0.62936C0.00535841 0.452431 0.0685472 0.303306 0.18987 0.181984C0.311192 0.0606612 0.460317 0 0.637246 0C0.814174 0 0.9633 0.0606612 1.08462 0.181984L3.99636 3.10889L6.92326 0.181984C7.04459 0.0606612 7.19371 0 7.37064 0C7.54757 0 7.69669 0.0606612 7.81802 0.181984C7.93934 0.303306 8 0.452431 8 0.62936C8 0.806288 7.93934 0.955414 7.81802 1.07674L4.89111 4.00364L7.81802 6.93054C7.93934 7.05187 8 7.19846 8 7.37034C8 7.54221 7.93934 7.68881 7.81802 7.81013C7.69669 7.93145 7.54757 7.99211 7.37064 7.99211C7.19371 7.99211 7.04459 7.93145 6.92326 7.81013L3.99636 4.89839Z" fill="#1F1F29"/>
</svg>
