<svg width="16" height="17" viewBox="0 0 16 17" fill="none" xmlns="http://www.w3.org/2000/svg">
<g clip-path="url(#clip0_23_189)">
<path d="M4.66663 6.9445C4.66663 6.47295 4.85395 6.02071 5.18739 5.68727C5.52083 5.35383 5.97307 5.1665 6.44463 5.1665H12.222C12.4554 5.1665 12.6867 5.21249 12.9024 5.30185C13.1181 5.3912 13.3141 5.52217 13.4792 5.68727C13.6443 5.85237 13.7753 6.04838 13.8646 6.26409C13.954 6.47981 14 6.71101 14 6.9445V12.7218C14 12.9553 13.954 13.1865 13.8646 13.4022C13.7753 13.618 13.6443 13.814 13.4792 13.9791C13.3141 14.1442 13.1181 14.2751 12.9024 14.3645C12.6867 14.4538 12.4554 14.4998 12.222 14.4998H6.44463C6.21114 14.4998 5.97993 14.4538 5.76421 14.3645C5.5485 14.2751 5.35249 14.1442 5.18739 13.9791C5.02229 13.814 4.89132 13.618 4.80197 13.4022C4.71262 13.1865 4.66663 12.9553 4.66663 12.7218V6.9445Z" stroke="#5A5A76" stroke-width="1.5" stroke-linecap="round" stroke-linejoin="round"/>
<path d="M2.67467 11.658C2.47023 11.5415 2.30018 11.373 2.18172 11.1697C2.06325 10.9663 2.00057 10.7353 2 10.5V3.83333C2 3.1 2.6 2.5 3.33333 2.5H10C10.5 2.5 10.772 2.75667 11 3.16667" stroke="#5A5A76" stroke-width="1.5" stroke-linecap="round" stroke-linejoin="round"/>
</g>
<defs>
<clipPath id="clip0_23_189">
<rect width="16" height="16" fill="white" transform="translate(0 0.5)"/>
</clipPath>
</defs>
</svg>
