<svg width="20" height="20" viewBox="0 0 20 20" fill="none" xmlns="http://www.w3.org/2000/svg">
<g clip-path="url(#clip0_45_2515)">
<path d="M5.83337 8.05575C5.83337 7.46631 6.06753 6.90101 6.48433 6.48421C6.90113 6.06741 7.46643 5.83325 8.05587 5.83325H15.2775C15.5694 5.83325 15.8584 5.89074 16.1281 6.00243C16.3977 6.11412 16.6427 6.27783 16.8491 6.48421C17.0555 6.69059 17.2192 6.93559 17.3309 7.20524C17.4426 7.47488 17.5 7.76389 17.5 8.05575V15.2774C17.5 15.5693 17.4426 15.8583 17.3309 16.1279C17.2192 16.3976 17.0555 16.6426 16.8491 16.849C16.6427 17.0553 16.3977 17.2191 16.1281 17.3307C15.8584 17.4424 15.5694 17.4999 15.2775 17.4999H8.05587C7.76401 17.4999 7.47501 17.4424 7.20536 17.3307C6.93571 17.2191 6.69071 17.0553 6.48433 16.849C6.27795 16.6426 6.11424 16.3976 6.00255 16.1279C5.89086 15.8583 5.83337 15.5693 5.83337 15.2774V8.05575Z" stroke="#1F1F29" stroke-width="1.25" stroke-linecap="round" stroke-linejoin="round"/>
<path d="M3.34333 13.9475C3.08779 13.8018 2.87523 13.5912 2.72715 13.3371C2.57906 13.0829 2.50071 12.7942 2.5 12.5V4.16667C2.5 3.25 3.25 2.5 4.16667 2.5H12.5C13.125 2.5 13.465 2.82083 13.75 3.33333" stroke="#1F1F29" stroke-width="1.25" stroke-linecap="round" stroke-linejoin="round"/>
</g>
<defs>
<clipPath id="clip0_45_2515">
<rect width="20" height="20" fill="white"/>
</clipPath>
</defs>
</svg>
