<svg width="32" height="32" viewBox="0 0 32 32" fill="none" xmlns="http://www.w3.org/2000/svg">
<rect width="32" height="32" rx="8" fill="#EAEAF3"/>
<mask id="mask0_2024_72" style="mask-type:alpha" maskUnits="userSpaceOnUse" x="6" y="6" width="20" height="20">
<rect x="6" y="6" width="20" height="20" fill="#D9D9D9"/>
</mask>
<g mask="url(#mask0_2024_72)">
<path d="M12.5 23C12.0875 23 11.7344 22.8531 11.4406 22.5594C11.1469 22.2656 11 21.9125 11 21.5V11.5H10.75C10.5375 11.5 10.3594 11.4285 10.2156 11.2856C10.0719 11.1427 10 10.9656 10 10.7544C10 10.5431 10.0719 10.3646 10.2156 10.2188C10.3594 10.0729 10.5375 10 10.75 10H14V9.75C14 9.5375 14.0719 9.35937 14.2156 9.21562C14.3594 9.07187 14.5375 9 14.75 9H17.25C17.4625 9 17.6406 9.07187 17.7844 9.21562C17.9281 9.35937 18 9.5375 18 9.75V10H21.25C21.4625 10 21.6406 10.0715 21.7844 10.2144C21.9281 10.3573 22 10.5344 22 10.7456C22 10.9569 21.9281 11.1354 21.7844 11.2812C21.6406 11.4271 21.4625 11.5 21.25 11.5H21V21.491C21 21.9137 20.8531 22.2708 20.5594 22.5625C20.2656 22.8542 19.9125 23 19.5 23H12.5ZM19.5 11.5H12.5V21.5H19.5V11.5ZM14 20H15.5V13H14V20ZM16.5 20H18V13H16.5V20Z" fill="#5A5A76"/>
</g>
</svg>
