<svg width="20" height="20" viewBox="0 0 20 20" fill="none" xmlns="http://www.w3.org/2000/svg">
<mask id="mask0_0_1068" style="mask-type:alpha" maskUnits="userSpaceOnUse" x="0" y="0" width="20" height="20">
<rect width="20" height="20" fill="#D9D9D9"/>
</mask>
<g mask="url(#mask0_0_1068)">
<path d="M8.33332 11.6042L13.4167 6.52085C13.5694 6.36808 13.7465 6.29169 13.9479 6.29169C14.1493 6.29169 14.3264 6.36808 14.4792 6.52085C14.6319 6.67363 14.7083 6.85071 14.7083 7.0521C14.7083 7.25349 14.6319 7.43058 14.4792 7.58335L8.85416 13.2084C8.70138 13.3611 8.5243 13.4375 8.32291 13.4375C8.12152 13.4375 7.94443 13.3611 7.79166 13.2084L5.52082 10.9375C5.36805 10.7847 5.29166 10.6077 5.29166 10.4063C5.29166 10.2049 5.36805 10.0278 5.52082 9.87502C5.6736 9.72224 5.85068 9.64585 6.05207 9.64585C6.25346 9.64585 6.43055 9.72224 6.58332 9.87502L8.33332 11.6042Z" fill="#5A5A76"/>
</g>
</svg>
