<svg width="10" height="7" viewBox="0 0 10 7" fill="none" xmlns="http://www.w3.org/2000/svg">
<path fill-rule="evenodd" clip-rule="evenodd" d="M0.503322 0.95254C0.261914 1.19395 0.261913 1.58535 0.503321 1.82676L4.7113 6.03474C4.71542 6.0391 4.71962 6.04342 4.72389 6.04769C4.84464 6.16844 5.00292 6.2288 5.16119 6.22875C5.31945 6.2288 5.47773 6.16844 5.59848 6.04769C5.60275 6.04342 5.60695 6.0391 5.61107 6.03474L9.81905 1.82676C10.0605 1.58535 10.0605 1.19395 9.81905 0.95254C9.57764 0.711132 9.18624 0.711132 8.94483 0.95254L5.16118 4.73619L1.37754 0.95254C1.13613 0.711132 0.74473 0.711132 0.503322 0.95254Z" fill="#1F1F29" fill-opacity="0.5"/>
</svg>
