<svg width="8" height="6" viewBox="0 0 8 6" fill="none" xmlns="http://www.w3.org/2000/svg">
<path d="M4.00069 5.39169C3.90461 5.39169 3.81154 5.37367 3.72146 5.33764C3.63139 5.30161 3.54432 5.24156 3.46025 5.15749L0.19955 1.8968C0.0554305 1.75268 -0.0106242 1.57253 0.00138576 1.35635C0.0133957 1.14017 0.0854553 0.966028 0.217565 0.833918C0.373694 0.677789 0.553843 0.602727 0.758011 0.608732C0.96218 0.614737 1.13632 0.689799 1.28044 0.833918L4.00069 3.57218L6.73896 0.833918C6.88308 0.689799 7.05422 0.617739 7.25238 0.617739C7.45055 0.617739 7.62769 0.695804 7.78382 0.851933C7.92794 0.996052 8 1.1732 8 1.38337C8 1.59355 7.92794 1.77069 7.78382 1.91481L4.54114 5.15749C4.45707 5.24156 4.37 5.30161 4.27992 5.33764C4.18985 5.37367 4.09677 5.39169 4.00069 5.39169Z" fill="#1F1F29" fill-opacity="0.5"/>
</svg>
