<svg width="24" height="24" viewBox="0 0 24 24" fill="none" xmlns="http://www.w3.org/2000/svg">
<g clip-path="url(#clip0_40_1048)">
<path d="M16 0.5C20.1421 0.5 23.5 3.85786 23.5 8L23.5 16C23.5 20.1421 20.1421 23.5 16 23.5L8 23.5C3.85786 23.5 0.5 20.1421 0.5 16L0.5 8C0.5 3.85786 3.85786 0.5 8 0.5L16 0.5Z" fill="white" stroke="#EEEEEE"/>
<path d="M8.25004 12L13.5538 6.69629L15.3213 8.46504L11.785 12L15.3213 15.535L13.5538 17.3038L8.25004 12Z" fill="#818284"/>
<path fill-rule="evenodd" clip-rule="evenodd" d="M11.785 12L15.3213 15.535L13.5538 17.3038L8.25004 12L13.5538 6.69629L15.3213 8.46504L11.785 12ZM14.8971 8.46493L11.3607 12L14.8971 15.5352L13.5537 16.8794L8.6743 12L13.5537 7.12063L14.8971 8.46493Z" fill="white"/>
</g>
<defs>
<clipPath id="clip0_40_1048">
<rect width="24" height="24" fill="white" transform="matrix(0 1 -1 0 24 0)"/>
</clipPath>
</defs>
</svg>
