<svg width="32" height="32" viewBox="0 0 32 32" fill="none" xmlns="http://www.w3.org/2000/svg">
<rect width="32" height="32" rx="8" fill="#EAEAF3"/>
<mask id="mask0_2024_76" style="mask-type:alpha" maskUnits="userSpaceOnUse" x="6" y="6" width="20" height="20">
<rect x="6" y="6" width="20" height="20" fill="#D9D9D9"/>
</mask>
<g mask="url(#mask0_2024_76)">
<path d="M11.2857 20.7143H12.1964L18.8929 14.0179L17.9821 13.1071L11.2857 19.8036V20.7143ZM10.6461 22C10.4654 22 10.3125 21.9387 10.1875 21.8161C10.0625 21.6935 10 21.5416 10 21.3604V19.8094C10 19.6389 10.0298 19.4762 10.0893 19.3214C10.1488 19.1667 10.244 19.0238 10.375 18.8929L18.8929 10.375C19.0238 10.244 19.1657 10.1488 19.3185 10.0893C19.4713 10.0298 19.632 10 19.8006 10C19.9693 10 20.131 10.0298 20.2857 10.0893C20.4405 10.1488 20.5833 10.244 20.7143 10.375L21.625 11.2857C21.756 11.4167 21.8512 11.5595 21.9107 11.7143C21.9702 11.869 22 12.027 22 12.1883C22 12.3602 21.9701 12.5241 21.9103 12.6799C21.8505 12.8358 21.7554 12.9782 21.625 13.1071L13.1071 21.625C12.9762 21.756 12.8336 21.8512 12.6795 21.9107C12.5253 21.9702 12.3632 22 12.1931 22H10.6461ZM18.4295 13.5705L17.9821 13.1071L18.8929 14.0179L18.4295 13.5705Z" fill="#5A5A76"/>
</g>
</svg>
