<svg width="30" height="32" viewBox="0 0 30 32" fill="none" xmlns="http://www.w3.org/2000/svg">
<path fill-rule="evenodd" clip-rule="evenodd" d="M19.1157 1.11147C16.5489 -0.370491 13.3865 -0.370489 10.8197 1.11147L4.14797 4.96343C1.58119 6.44537 0 9.1841 0 12.148V19.852C0 22.8159 1.5812 25.5546 4.14797 27.0365L10.8197 30.8885C13.3865 32.3705 16.5489 32.3705 19.1157 30.8885L25.7875 27.0365C28.3542 25.5546 29.9354 22.8159 29.9354 19.852V12.148C29.9354 9.18409 28.3542 6.44537 25.7875 4.96343L19.1157 1.11147ZM14.9677 3.02887C13.4858 3.02887 12.1362 3.80806 9.43702 5.36644L8.52417 5.89349L8.52416 5.89349C5.82503 7.45185 4.47547 8.23103 3.7345 9.51442C2.99354 10.7978 2.99354 12.3562 2.99354 15.4729V16.5271C2.99354 19.6438 2.99354 21.2022 3.7345 22.4856C4.47547 23.7689 5.82503 24.5481 8.52416 26.1065L9.43702 26.6335C12.1362 28.1919 13.4858 28.9711 14.9677 28.9711C16.4497 28.9711 17.7993 28.1919 20.4984 26.6335L21.4113 26.1065C24.1104 24.5481 25.46 23.7689 26.2009 22.4856C26.9419 21.2022 26.9419 19.6438 26.9419 16.5271V15.4728C26.9419 12.3562 26.9419 10.7978 26.2009 9.51442C25.46 8.23102 24.1104 7.45185 21.4113 5.89349L20.4984 5.36645C17.7993 3.80806 16.4497 3.02887 14.9677 3.02887Z" fill="url(#paint0_linear_4_7688)"/>
<mask id="mask0_4_7688" style="mask-type:alpha" maskUnits="userSpaceOnUse" x="6" y="7" width="18" height="18">
<path d="M13.5769 8.76983C14.0366 7.87502 14.2665 7.42762 14.5754 7.28275C14.8444 7.15662 15.1556 7.15662 15.4246 7.28275C15.7335 7.42762 15.9634 7.87502 16.4231 8.76983L18.1593 12.1488C18.2465 12.3185 18.2901 12.4034 18.3475 12.4772C18.3984 12.5427 18.4573 12.6016 18.5228 12.6525C18.5966 12.7099 18.6815 12.7535 18.8512 12.8407L22.2302 14.5769C23.125 15.0366 23.5724 15.2665 23.7173 15.5754C23.8434 15.8444 23.8434 16.1556 23.7173 16.4246C23.5724 16.7335 23.125 16.9634 22.2302 17.4231L18.8512 19.1593C18.6815 19.2465 18.5966 19.2901 18.5228 19.3475C18.4573 19.3984 18.3984 19.4573 18.3475 19.5228C18.2901 19.5966 18.2465 19.6815 18.1593 19.8512L16.4231 23.2302C15.9634 24.125 15.7335 24.5724 15.4246 24.7173C15.1556 24.8434 14.8444 24.8434 14.5754 24.7173C14.2665 24.5724 14.0366 24.125 13.5769 23.2302L11.8407 19.8512C11.7535 19.6815 11.7099 19.5966 11.6525 19.5228C11.6016 19.4573 11.5427 19.3984 11.4772 19.3475C11.4034 19.2901 11.3185 19.2465 11.1488 19.1593L7.76983 17.4231C6.87502 16.9634 6.42762 16.7335 6.28275 16.4246C6.15662 16.1556 6.15662 15.8444 6.28275 15.5754C6.42762 15.2665 6.87502 15.0366 7.76983 14.5769L11.1488 12.8407C11.3185 12.7535 11.4034 12.7099 11.4772 12.6525C11.5427 12.6016 11.6016 12.5427 11.6525 12.4772C11.7099 12.4034 11.7535 12.3185 11.8407 12.1488L13.5769 8.76983Z" fill="black"/>
</mask>
<g mask="url(#mask0_4_7688)">
<path d="M4.97754 10.2268L14.9772 15.9965V27.5469L4.97788 21.7735L4.97754 10.2268Z" fill="#8C8C8C"/>
<path d="M24.9727 10.2268L14.973 15.9965V27.5469L24.9723 21.7735L24.9727 10.2268Z" fill="#666666"/>
<path d="M14.973 4.45325L24.9723 10.2266L14.973 15.9954L4.97266 10.2266H4.97367L14.973 4.45325Z" fill="#B3B3B3"/>
</g>
<g style="mix-blend-mode:color">
<rect x="5" y="5" width="20" height="22" rx="8" fill="url(#paint1_linear_4_7688)"/>
</g>
<defs>
<linearGradient id="paint0_linear_4_7688" x1="29.9354" y1="0" x2="-1.99352" y2="29.869" gradientUnits="userSpaceOnUse">
<stop stop-color="#7570FF"/>
<stop offset="1" stop-color="#BC70FF"/>
</linearGradient>
<linearGradient id="paint1_linear_4_7688" x1="25" y1="5" x2="3.09955" y2="24.9095" gradientUnits="userSpaceOnUse">
<stop stop-color="#7570FF"/>
<stop offset="1" stop-color="#BC70FF"/>
</linearGradient>
</defs>
</svg>
