<svg width="380" height="300" viewBox="0 0 380 300" fill="none" xmlns="http://www.w3.org/2000/svg">
<path d="M22.5 300C16.5 300 11.25 297.75 6.75 293.25C2.25 288.75 0 283.5 0 277.5V22.5C0 16.5 2.25 11.25 6.75 6.75C11.25 2.25 16.5 0 22.5 0H148.5C151.611 0 154.576 0.625 157.396 1.875C160.215 3.125 162.625 4.75 164.625 6.75L233.25 75.375C235.25 77.375 236.875 79.7848 238.125 82.6043C239.375 85.4238 240 88.389 240 91.5V277.5C240 283.5 237.75 288.75 233.25 293.25C228.75 297.75 223.5 300 217.5 300H22.5ZM146.625 81V22.5H22.5V277.5H217.5V92.25H157.875C154.688 92.25 152.016 91.1719 149.859 89.0156C147.703 86.8594 146.625 84.1875 146.625 81Z" fill="#1F1F29" fill-opacity="0.04"/>
<path d="M214.88 228.289C188.362 228.289 165.919 219.095 147.552 200.707C129.184 182.32 120 160.132 120 134.144C120 108.157 129.194 85.9689 147.581 67.5813C165.969 49.1938 188.218 40 214.328 40C240.438 40 262.626 49.1938 280.891 67.5813C299.156 85.9689 308.289 108.175 308.289 134.199C308.289 144.705 306.572 154.861 303.14 164.668C299.708 174.474 294.559 183.668 287.694 192.249L376.69 280.509C378.897 282.607 380 285.276 380 288.518C380 291.76 378.897 294.484 376.69 296.69C374.484 298.897 371.76 300 368.518 300C365.276 300 362.607 298.897 360.509 296.69L271.881 208.062C264.526 214.437 255.95 219.401 246.154 222.956C236.357 226.511 225.932 228.289 214.88 228.289ZM214.512 206.223C234.432 206.223 251.364 199.175 265.308 185.078C279.252 170.981 286.223 154.003 286.223 134.144C286.223 114.286 279.252 97.3079 265.308 83.2108C251.364 69.1136 234.432 62.0651 214.512 62.0651C194.388 62.0651 177.282 69.1136 163.195 83.2108C149.108 97.3079 142.065 114.286 142.065 134.144C142.065 154.003 149.108 170.981 163.195 185.078C177.282 199.175 194.388 206.223 214.512 206.223Z" fill="#1F1F29" fill-opacity="0.04"/>
</svg>
