<svg width="24" height="25" viewBox="0 0 24 25" fill="none" xmlns="http://www.w3.org/2000/svg">
<mask id="mask0_4_7912" style="mask-type:alpha" maskUnits="userSpaceOnUse" x="2" y="3" width="20" height="20">
<rect x="2" y="3" width="20" height="20" fill="#D9D9D9"/>
</mask>
<g mask="url(#mask0_4_7912)">
<path d="M10.2292 14.9376L15.7292 9.45846C15.8819 9.30568 16.0556 9.23277 16.25 9.23971C16.4444 9.24666 16.6181 9.32652 16.7708 9.47929C16.9236 9.63207 17 9.80568 17 10.0001C17 10.1946 16.9236 10.3682 16.7708 10.521L10.7708 16.521C10.6181 16.6737 10.441 16.7501 10.2396 16.7501C10.0382 16.7501 9.86111 16.6737 9.70833 16.521L7.22917 14.0418C7.07639 13.889 7 13.7154 7 13.521C7 13.3265 7.07639 13.1529 7.22917 13.0001C7.38194 12.8473 7.55556 12.771 7.75 12.771C7.94444 12.771 8.11806 12.8473 8.27083 13.0001L10.2292 14.9376Z" fill="white"/>
</g>
</svg>
