<svg width="16" height="16" viewBox="0 0 16 16" fill="none" xmlns="http://www.w3.org/2000/svg">
<mask id="mask0_4_7656" style="mask-type:alpha" maskUnits="userSpaceOnUse" x="0" y="0" width="16" height="16">
<rect width="16" height="16" fill="#D9D9D9"/>
</mask>
<g mask="url(#mask0_4_7656)">
<path d="M3.60156 14.4C3.27156 14.4 2.98906 14.2825 2.75406 14.0475C2.51906 13.8125 2.40156 13.53 2.40156 13.2V6.33331C2.16823 6.24442 1.97656 6.0972 1.82656 5.89164C1.67656 5.68609 1.60156 5.45553 1.60156 5.19998V2.79998C1.60156 2.46998 1.71906 2.18748 1.95406 1.95248C2.18906 1.71748 2.47156 1.59998 2.80156 1.59998H13.2016C13.5316 1.59998 13.8141 1.71748 14.0491 1.95248C14.2841 2.18748 14.4016 2.46998 14.4016 2.79998V5.19998C14.4016 5.45553 14.3266 5.68609 14.1766 5.89164C14.0266 6.0972 13.8349 6.24442 13.6016 6.33331V13.1977C13.6016 13.5326 13.4841 13.8166 13.2491 14.05C13.0141 14.2833 12.7316 14.4 12.4016 14.4H3.60156ZM3.60156 6.39998V13.2H12.4016V6.39998H3.60156ZM2.80156 5.19998H13.2016V2.79998H2.80156V5.19998ZM6.40156 9.19998H9.60156V7.99998H6.40156V9.19998Z" fill="#1F1F29"/>
</g>
</svg>
