<svg width="20" height="20" viewBox="0 0 20 20" fill="none" xmlns="http://www.w3.org/2000/svg">
<mask id="mask0_4_8013" style="mask-type:alpha" maskUnits="userSpaceOnUse" x="0" y="0" width="20" height="20">
<rect width="20" height="20" fill="#D9D9D9"/>
</mask>
<g mask="url(#mask0_4_8013)">
<path d="M9.81243 2.81214C9.83313 2.75619 9.86067 2.72944 9.88486 2.71356C9.9134 2.69482 9.95345 2.68154 10 2.68154C10.0465 2.68154 10.0866 2.69482 10.1151 2.71356C10.1393 2.72943 10.1669 2.75619 10.1876 2.81213L11.7911 7.14548C11.9734 7.63817 12.3618 8.02663 12.8545 8.20895L17.1879 9.81243C17.2438 9.83313 17.2706 9.86067 17.2864 9.88486C17.3052 9.9134 17.3185 9.95345 17.3185 10C17.3185 10.0465 17.3052 10.0866 17.2864 10.1151C17.2706 10.1393 17.2438 10.1669 17.1879 10.1876L12.8545 11.7911C12.3618 11.9734 11.9734 12.3618 11.7911 12.8545L10.1876 17.1879C10.1669 17.2438 10.1393 17.2706 10.1151 17.2864C10.0866 17.3052 10.0465 17.3185 10 17.3185C9.95345 17.3185 9.9134 17.3052 9.88486 17.2864C9.86067 17.2706 9.83313 17.2438 9.81243 17.1879L8.20895 12.8545C8.02663 12.3618 7.63817 11.9734 7.14548 11.7911L2.81214 10.1876C2.75619 10.1669 2.72944 10.1393 2.71356 10.1151C2.69482 10.0866 2.68154 10.0465 2.68154 10C2.68154 9.95345 2.69482 9.9134 2.71356 9.88486C2.72943 9.86067 2.75619 9.83313 2.81213 9.81243L7.14548 8.20895L6.86785 7.45867L7.14548 8.20895C7.63817 8.02663 8.02663 7.63818 8.20895 7.14548L9.81243 2.81214Z" stroke="white" stroke-width="1.6"/>
</g>
</svg>
