<svg width="121" height="121" viewBox="0 0 121 121" fill="none" xmlns="http://www.w3.org/2000/svg">
<g clip-path="url(#clip0_2022_2780)">
<path d="M20.25 30.75C20.25 39.035 38.16 45.75 60.25 45.75C82.34 45.75 100.25 39.035 100.25 30.75C100.25 22.465 82.34 15.75 60.25 15.75C38.16 15.75 20.25 22.465 20.25 30.75Z" stroke="url(#paint0_linear_2022_2780)" stroke-width="8" stroke-linecap="round" stroke-linejoin="round"/>
<path d="M20.25 30.75V60.75C20.25 69.035 38.16 75.75 60.25 75.75C61.3 75.75 62.35 75.735 63.38 75.7" stroke="url(#paint1_linear_2022_2780)" stroke-width="8" stroke-linecap="round" stroke-linejoin="round"/>
<path d="M100.25 58.25V30.75" stroke="url(#paint2_linear_2022_2780)" stroke-width="8" stroke-linecap="round" stroke-linejoin="round"/>
<path d="M20.25 60.75V90.75C20.25 99.035 38.16 105.75 60.25 105.75" stroke="url(#paint3_linear_2022_2780)" stroke-width="8" stroke-linecap="round" stroke-linejoin="round"/>
<path d="M85.255 95.75C85.255 98.4022 86.3086 100.946 88.1839 102.821C90.0593 104.696 92.6028 105.75 95.255 105.75C97.9072 105.75 100.451 104.696 102.326 102.821C104.201 100.946 105.255 98.4022 105.255 95.75C105.255 93.0978 104.201 90.5543 102.326 88.6789C100.451 86.8036 97.9072 85.75 95.255 85.75C92.6028 85.75 90.0593 86.8036 88.1839 88.6789C86.3086 90.5543 85.255 93.0978 85.255 95.75Z" stroke="url(#paint4_linear_2022_2780)" stroke-width="8" stroke-linecap="round" stroke-linejoin="round"/>
<path d="M95.255 78.25V85.75" stroke="url(#paint5_linear_2022_2780)" stroke-width="8" stroke-linecap="round" stroke-linejoin="round"/>
<path d="M95.255 105.75V113.25" stroke="url(#paint6_linear_2022_2780)" stroke-width="8" stroke-linecap="round" stroke-linejoin="round"/>
<path d="M110.41 87L103.915 90.75" stroke="url(#paint7_linear_2022_2780)" stroke-width="8" stroke-linecap="round" stroke-linejoin="round"/>
<path d="M86.6 100.75L80.1 104.5" stroke="url(#paint8_linear_2022_2780)" stroke-width="8" stroke-linecap="round" stroke-linejoin="round"/>
<path d="M80.1 87L86.6 90.75" stroke="url(#paint9_linear_2022_2780)" stroke-width="8" stroke-linecap="round" stroke-linejoin="round"/>
<path d="M103.915 100.75L110.415 104.5" stroke="url(#paint10_linear_2022_2780)" stroke-width="8" stroke-linecap="round" stroke-linejoin="round"/>
</g>
<defs>
<linearGradient id="paint0_linear_2022_2780" x1="100.25" y1="15.75" x2="80.524" y2="68.3527" gradientUnits="userSpaceOnUse">
<stop stop-color="#7570FF"/>
<stop offset="1" stop-color="#BC70FF"/>
</linearGradient>
<linearGradient id="paint1_linear_2022_2780" x1="63.38" y1="30.75" x2="18.4205" y2="73.8412" gradientUnits="userSpaceOnUse">
<stop stop-color="#7570FF"/>
<stop offset="1" stop-color="#BC70FF"/>
</linearGradient>
<linearGradient id="paint2_linear_2022_2780" x1="101.25" y1="30.75" x2="99.2526" y2="30.8226" gradientUnits="userSpaceOnUse">
<stop stop-color="#7570FF"/>
<stop offset="1" stop-color="#BC70FF"/>
</linearGradient>
<linearGradient id="paint3_linear_2022_2780" x1="60.25" y1="60.75" x2="15.5603" y2="100.474" gradientUnits="userSpaceOnUse">
<stop stop-color="#7570FF"/>
<stop offset="1" stop-color="#BC70FF"/>
</linearGradient>
<linearGradient id="paint4_linear_2022_2780" x1="105.255" y1="85.75" x2="85.255" y2="105.75" gradientUnits="userSpaceOnUse">
<stop stop-color="#7570FF"/>
<stop offset="1" stop-color="#BC70FF"/>
</linearGradient>
<linearGradient id="paint5_linear_2022_2780" x1="96.255" y1="78.25" x2="94.2899" y2="78.512" gradientUnits="userSpaceOnUse">
<stop stop-color="#7570FF"/>
<stop offset="1" stop-color="#BC70FF"/>
</linearGradient>
<linearGradient id="paint6_linear_2022_2780" x1="96.255" y1="105.75" x2="94.2899" y2="106.012" gradientUnits="userSpaceOnUse">
<stop stop-color="#7570FF"/>
<stop offset="1" stop-color="#BC70FF"/>
</linearGradient>
<linearGradient id="paint7_linear_2022_2780" x1="110.41" y1="87" x2="107.162" y2="92.6249" gradientUnits="userSpaceOnUse">
<stop stop-color="#7570FF"/>
<stop offset="1" stop-color="#BC70FF"/>
</linearGradient>
<linearGradient id="paint8_linear_2022_2780" x1="86.6" y1="100.75" x2="83.3536" y2="106.377" gradientUnits="userSpaceOnUse">
<stop stop-color="#7570FF"/>
<stop offset="1" stop-color="#BC70FF"/>
</linearGradient>
<linearGradient id="paint9_linear_2022_2780" x1="86.6" y1="87" x2="83.3536" y2="92.6271" gradientUnits="userSpaceOnUse">
<stop stop-color="#7570FF"/>
<stop offset="1" stop-color="#BC70FF"/>
</linearGradient>
<linearGradient id="paint10_linear_2022_2780" x1="110.415" y1="100.75" x2="107.169" y2="106.377" gradientUnits="userSpaceOnUse">
<stop stop-color="#7570FF"/>
<stop offset="1" stop-color="#BC70FF"/>
</linearGradient>
<clipPath id="clip0_2022_2780">
<rect width="120" height="120" fill="white" transform="translate(0.25 0.75)"/>
</clipPath>
</defs>
</svg>
