<svg width="120" height="120" viewBox="0 0 120 120" fill="none" xmlns="http://www.w3.org/2000/svg">
<path d="M72 33C70.4087 33 68.8826 33.6321 67.7574 34.7574C66.6321 35.8826 66 37.4087 66 39C66 40.5913 66.6321 42.1174 67.7574 43.2426C68.8826 44.3679 70.4087 45 72 45C73.5913 45 75.1174 44.3679 76.2426 43.2426C77.3679 42.1174 78 40.5913 78 39C78 37.4087 77.3679 35.8826 76.2426 34.7574C75.1174 33.6321 73.5913 33 72 33ZM42 39C42 37.4087 42.6321 35.8826 43.7574 34.7574C44.8826 33.6321 46.4087 33 48 33C49.5913 33 51.1174 33.6321 52.2426 34.7574C53.3679 35.8826 54 37.4087 54 39C54 40.5913 53.3679 42.1174 52.2426 43.2426C51.1174 44.3679 49.5913 45 48 45C46.4087 45 44.8826 44.3679 43.7574 43.2426C42.6321 42.1174 42 40.5913 42 39ZM63 15C63 14.2044 62.6839 13.4413 62.1213 12.8787C61.5587 12.3161 60.7956 12 60 12C59.2043 12 58.4413 12.3161 57.8787 12.8787C57.3161 13.4413 57 14.2044 57 15V18H39C36.6131 18 34.3239 18.9482 32.636 20.636C30.9482 22.3239 30 24.6131 30 27V51C30 53.3869 30.9482 55.6761 32.636 57.364C34.3239 59.0518 36.6131 60 39 60H81C83.3869 60 85.6761 59.0518 87.364 57.364C89.0518 55.6761 90 53.3869 90 51V27C90 24.6131 89.0518 22.3239 87.364 20.636C85.6761 18.9482 83.3869 18 81 18H63V15ZM39 24H81C81.7956 24 82.5587 24.3161 83.1213 24.8787C83.6839 25.4413 84 26.2044 84 27V51C84 51.7957 83.6839 52.5587 83.1213 53.1213C82.5587 53.6839 81.7956 54 81 54H39C38.2043 54 37.4413 53.6839 36.8787 53.1213C36.3161 52.5587 36 51.7957 36 51V27C36 26.2044 36.3161 25.4413 36.8787 24.8787C37.4413 24.3161 38.2043 24 39 24ZM61.5 107.988C77.196 107.79 86.67 104.418 92.232 99.348C97.482 94.548 98.766 88.686 98.97 84.012H99V79.872C98.9984 76.9928 97.8535 74.232 95.8171 72.1967C93.7806 70.1614 91.0192 69.018 88.14 69.018H69V69H51V69.018H31.86C25.86 69.018 21 73.878 21 79.878V84.012H21.03C21.234 88.692 22.518 94.554 27.768 99.342C33.33 104.418 42.804 107.79 58.5 107.988V108H61.5V107.988ZM31.86 75.018H88.14C89.4289 75.018 90.6651 75.53 91.5765 76.4415C92.488 77.3529 93 78.589 93 79.878V82.5C93 86.64 92.214 91.236 88.188 94.914C84.06 98.676 75.96 102 60 102C44.04 102 35.94 98.676 31.812 94.914C27.792 91.236 27 86.634 27 82.5V79.872C27.0016 78.5841 27.5143 77.3495 28.4256 76.4393C29.3368 75.5292 30.5721 75.018 31.86 75.018Z" fill="url(#paint0_linear_2013_2771)"/>
<path d="M111.75 78.5399C112.437 78.9308 113.008 79.4979 113.404 80.1826C113.799 80.8674 114.005 81.6452 114 82.4359V97.0039C114 98.6219 113.114 100.114 111.684 100.9L98.184 109.44C97.5147 109.807 96.7635 110 96 110C95.2365 110 94.4853 109.807 93.816 109.44L80.316 100.9C79.6163 100.518 79.0322 99.9542 78.6248 99.2689C78.2174 98.5835 78.0016 97.8012 78 97.0039V82.4339C78 80.8159 78.886 79.3259 80.316 78.5399L93.816 70.5799C94.5051 70.2 95.2791 70.0007 96.066 70.0007C96.8529 70.0007 97.6269 70.2 98.316 70.5799L111.816 78.5399H111.75Z" fill="url(#paint1_linear_2013_2771)"/>
<path d="M90 90C90 91.5913 90.6321 93.1174 91.7574 94.2426C92.8826 95.3679 94.4087 96 96 96C97.5913 96 99.1174 95.3679 100.243 94.2426C101.368 93.1174 102 91.5913 102 90C102 88.4087 101.368 86.8826 100.243 85.7574C99.1174 84.6321 97.5913 84 96 84C94.4087 84 92.8826 84.6321 91.7574 85.7574C90.6321 86.8826 90 88.4087 90 90Z" fill="url(#paint2_linear_2013_2771)"/>
<path d="M111.75 78.5399C112.437 78.9308 113.008 79.4979 113.404 80.1826C113.799 80.8674 114.005 81.6452 114 82.4359V97.0039C114 98.6219 113.114 100.114 111.684 100.9L98.184 109.44C97.5147 109.807 96.7635 110 96 110C95.2365 110 94.4853 109.807 93.816 109.44L80.316 100.9C79.6163 100.518 79.0322 99.9542 78.6248 99.2689C78.2174 98.5835 78.0016 97.8012 78 97.0039V82.4339C78 80.8159 78.886 79.3259 80.316 78.5399L93.816 70.5799C94.5051 70.2 95.2791 70.0007 96.066 70.0007C96.8529 70.0007 97.6269 70.2 98.316 70.5799L111.816 78.5399H111.75Z" stroke="white" stroke-width="4" stroke-linecap="round" stroke-linejoin="round"/>
<path d="M90 90C90 91.5913 90.6321 93.1174 91.7574 94.2426C92.8826 95.3679 94.4087 96 96 96C97.5913 96 99.1174 95.3679 100.243 94.2426C101.368 93.1174 102 91.5913 102 90C102 88.4087 101.368 86.8826 100.243 85.7574C99.1174 84.6321 97.5913 84 96 84C94.4087 84 92.8826 84.6321 91.7574 85.7574C90.6321 86.8826 90 88.4087 90 90Z" stroke="white" stroke-width="4" stroke-linecap="round" stroke-linejoin="round"/>
<defs>
<linearGradient id="paint0_linear_2013_2771" x1="99" y1="12" x2="5.03294" y2="88.3482" gradientUnits="userSpaceOnUse">
<stop stop-color="#7570FF"/>
<stop offset="1" stop-color="#BC70FF"/>
</linearGradient>
<linearGradient id="paint1_linear_2013_2771" x1="114" y1="70.0007" x2="74.2217" y2="105.802" gradientUnits="userSpaceOnUse">
<stop stop-color="#7570FF"/>
<stop offset="1" stop-color="#BC70FF"/>
</linearGradient>
<linearGradient id="paint2_linear_2013_2771" x1="114" y1="70.0007" x2="74.2217" y2="105.802" gradientUnits="userSpaceOnUse">
<stop stop-color="#7570FF"/>
<stop offset="1" stop-color="#BC70FF"/>
</linearGradient>
</defs>
</svg>
