<svg width="20" height="20" viewBox="0 0 20 20" fill="none" xmlns="http://www.w3.org/2000/svg">
<mask id="mask0_4_9452" style="mask-type:alpha" maskUnits="userSpaceOnUse" x="0" y="0" width="20" height="20">
<rect width="20" height="20" fill="#D9D9D9"/>
</mask>
<g mask="url(#mask0_4_9452)">
<path d="M4.62514 8.74996C4.45848 8.68051 4.30223 8.6076 4.15639 8.53121C4.01056 8.45482 3.86126 8.36107 3.70848 8.24996L3.10431 8.43746C2.92376 8.49301 2.74667 8.48607 2.57306 8.41663C2.39945 8.34718 2.26403 8.23607 2.16681 8.08329L2.00014 7.79163C1.90292 7.62496 1.8682 7.4444 1.89598 7.24996C1.92376 7.05551 2.01403 6.89579 2.16681 6.77079L2.62514 6.37496C2.59737 6.1944 2.58348 6.01385 2.58348 5.83329C2.58348 5.65274 2.59737 5.47218 2.62514 5.29163L2.16681 4.89579C2.01403 4.77079 1.92376 4.61454 1.89598 4.42704C1.8682 4.23954 1.90292 4.06246 2.00014 3.89579L2.18764 3.58329C2.28487 3.43051 2.41681 3.3194 2.58348 3.24996C2.75014 3.18051 2.92376 3.17357 3.10431 3.22913L3.70848 3.41663C3.86126 3.30551 4.01056 3.21176 4.15639 3.13538C4.30223 3.05899 4.45848 2.98607 4.62514 2.91663L4.75014 2.31246C4.79181 2.11801 4.88556 1.96176 5.03139 1.84371C5.17723 1.72565 5.34737 1.66663 5.54181 1.66663H5.87514C6.06959 1.66663 6.23973 1.72913 6.38556 1.85413C6.53139 1.97913 6.62514 2.13885 6.66681 2.33329L6.79181 2.91663C6.95848 2.98607 7.11473 3.05899 7.26056 3.13538C7.40639 3.21176 7.5557 3.30551 7.70848 3.41663L8.31264 3.22913C8.4932 3.17357 8.67028 3.18051 8.84389 3.24996C9.01751 3.3194 9.15292 3.43051 9.25015 3.58329L9.41681 3.87496C9.51403 4.04163 9.54876 4.22218 9.52098 4.41663C9.4932 4.61107 9.40292 4.77079 9.25015 4.89579L8.79181 5.29163C8.81959 5.47218 8.83348 5.65274 8.83348 5.83329C8.83348 6.01385 8.81959 6.1944 8.79181 6.37496L9.25015 6.77079C9.40292 6.89579 9.4932 7.05204 9.52098 7.23954C9.54876 7.42704 9.51403 7.60413 9.41681 7.77079L9.22931 8.08329C9.13209 8.23607 9.00015 8.34718 8.83348 8.41663C8.66681 8.48607 8.4932 8.49301 8.31264 8.43746L7.70848 8.24996C7.5557 8.36107 7.40639 8.45482 7.26056 8.53121C7.11473 8.6076 6.95848 8.68051 6.79181 8.74996L6.66681 9.35413C6.62514 9.54857 6.53139 9.70482 6.38556 9.82288C6.23973 9.94093 6.06959 9.99996 5.87514 9.99996H5.54181C5.34737 9.99996 5.17723 9.93746 5.03139 9.81246C4.88556 9.68746 4.79181 9.52774 4.75014 9.33329L4.62514 8.74996ZM5.70848 7.49996C6.16681 7.49996 6.55917 7.33676 6.88556 7.01038C7.21195 6.68399 7.37514 6.29163 7.37514 5.83329C7.37514 5.37496 7.21195 4.9826 6.88556 4.65621C6.55917 4.32982 6.16681 4.16663 5.70848 4.16663C5.25014 4.16663 4.85778 4.32982 4.53139 4.65621C4.20501 4.9826 4.04181 5.37496 4.04181 5.83329C4.04181 6.29163 4.20501 6.68399 4.53139 7.01038C4.85778 7.33676 5.25014 7.49996 5.70848 7.49996ZM11.9585 17.4166C11.7224 17.3333 11.5036 17.2326 11.3022 17.1145C11.1008 16.9965 10.9029 16.8611 10.7085 16.7083L9.91681 16.9583C9.66681 17.0416 9.41681 17.0382 9.16681 16.9479C8.91681 16.8576 8.72237 16.6944 8.58348 16.4583L8.35431 16.0625C8.21542 15.8263 8.16681 15.5729 8.20848 15.302C8.25014 15.0312 8.37514 14.8055 8.58348 14.625L9.20848 14.0833C9.1807 13.8333 9.16681 13.5833 9.16681 13.3333C9.16681 13.0833 9.1807 12.8333 9.20848 12.5833L8.58348 12.0208C8.37514 11.8402 8.25014 11.618 8.20848 11.3541C8.16681 11.0902 8.21542 10.8402 8.35431 10.6041L8.58348 10.2083C8.72237 9.97218 8.91681 9.80899 9.16681 9.71871C9.41681 9.62843 9.66681 9.62496 9.91681 9.70829L10.7085 9.95829C10.9029 9.80551 11.1008 9.6701 11.3022 9.55204C11.5036 9.43399 11.7224 9.33329 11.9585 9.24996L12.146 8.39579C12.2015 8.1319 12.33 7.91663 12.5314 7.74996C12.7328 7.58329 12.9724 7.49996 13.2501 7.49996H13.7501C14.0279 7.49996 14.2675 7.58329 14.4689 7.74996C14.6703 7.91663 14.7988 8.1319 14.8543 8.39579L15.0418 9.24996C15.2779 9.33329 15.4967 9.43399 15.6981 9.55204C15.8995 9.6701 16.0974 9.80551 16.2918 9.95829L17.0835 9.70829C17.3335 9.62496 17.5835 9.62843 17.8335 9.71871C18.0835 9.80899 18.2779 9.97218 18.4168 10.2083L18.646 10.6041C18.7849 10.8402 18.8335 11.0937 18.7918 11.3645C18.7501 11.6354 18.6251 11.8611 18.4168 12.0416L17.7918 12.5833C17.8196 12.8333 17.8335 13.0833 17.8335 13.3333C17.8335 13.5833 17.8196 13.8333 17.7918 14.0833L18.4168 14.6458C18.6251 14.8263 18.7501 15.0486 18.7918 15.3125C18.8335 15.5763 18.7849 15.8263 18.646 16.0625L18.4168 16.4583C18.2779 16.6944 18.0835 16.8576 17.8335 16.9479C17.5835 17.0382 17.3335 17.0416 17.0835 16.9583L16.2918 16.7083C16.0974 16.8611 15.8995 16.9965 15.6981 17.1145C15.4967 17.2326 15.2779 17.3333 15.0418 17.4166L14.8543 18.2708C14.7988 18.5347 14.6703 18.75 14.4689 18.9166C14.2675 19.0833 14.0279 19.1666 13.7501 19.1666H13.2501C12.9724 19.1666 12.7328 19.0833 12.5314 18.9166C12.33 18.75 12.2015 18.5347 12.146 18.2708L11.9585 17.4166ZM13.5001 15.8333C14.1946 15.8333 14.7849 15.5902 15.271 15.1041C15.7571 14.618 16.0001 14.0277 16.0001 13.3333C16.0001 12.6388 15.7571 12.0486 15.271 11.5625C14.7849 11.0763 14.1946 10.8333 13.5001 10.8333C12.8057 10.8333 12.2154 11.0763 11.7293 11.5625C11.2432 12.0486 11.0001 12.6388 11.0001 13.3333C11.0001 14.0277 11.2432 14.618 11.7293 15.1041C12.2154 15.5902 12.8057 15.8333 13.5001 15.8333Z" fill="#5A5A76"/>
</g>
</svg>
