<svg width="20" height="20" viewBox="0 0 20 20" fill="none" xmlns="http://www.w3.org/2000/svg">
<mask id="mask0_4_7720" style="mask-type:alpha" maskUnits="userSpaceOnUse" x="0" y="0" width="20" height="20">
<rect width="20" height="20" fill="#D9D9D9"/>
</mask>
<g mask="url(#mask0_4_7720)">
<path d="M13.125 10.75H4.74948C4.53713 10.75 4.35913 10.6785 4.21548 10.5356C4.07183 10.3927 4 10.2156 4 10.0044C4 9.79309 4.07183 9.61454 4.21548 9.46871C4.35913 9.32288 4.53713 9.24996 4.74948 9.24996H13.125L9.45392 5.57888C9.30408 5.42904 9.22917 5.25343 9.22917 5.05204C9.22917 4.85065 9.30556 4.67025 9.45833 4.51083C9.61111 4.36469 9.78819 4.29163 9.98958 4.29163C10.191 4.29163 10.3667 4.36678 10.5169 4.51708L15.4708 9.47721C15.5458 9.55236 15.6007 9.63378 15.6354 9.72146C15.6701 9.80914 15.6875 9.90308 15.6875 10.0033C15.6875 10.1035 15.6701 10.1974 15.6354 10.2851C15.6007 10.3728 15.5486 10.4513 15.4792 10.5208L10.5208 15.4791C10.3681 15.6319 10.1944 15.7048 10 15.6979C9.80556 15.6909 9.63194 15.6144 9.47917 15.4683C9.32639 15.3088 9.25 15.1273 9.25 14.9236C9.25 14.7199 9.32639 14.5439 9.47917 14.3958L13.125 10.75Z" fill="#1F1F29"/>
</g>
</svg>
