<svg width="42" height="29" viewBox="0 0 42 29" fill="none" xmlns="http://www.w3.org/2000/svg">
<g clip-path="url(#clip0_343_579)">
<path d="M41.0724 4.60605C40.8315 3.71578 40.3616 2.90414 39.7094 2.25197C39.0573 1.59979 38.2457 1.12983 37.3554 0.888891C34.0962 0 20.9787 0 20.9787 0C20.9787 0 7.86059 0.0269062 4.60133 0.915797C3.71104 1.15676 2.89942 1.62674 2.24727 2.27894C1.59512 2.93115 1.12521 3.74282 0.884328 4.63312C-0.101523 10.4242 -0.483953 19.2485 0.911399 24.8079C1.1523 25.6982 1.62223 26.5098 2.27437 27.162C2.92652 27.8142 3.73813 28.2841 4.6284 28.5251C7.88766 29.4139 21.0054 29.4139 21.0054 29.4139C21.0054 29.4139 34.1231 29.4139 37.3822 28.5251C38.2725 28.2841 39.0841 27.8142 39.7363 27.162C40.3885 26.5098 40.8584 25.6982 41.0993 24.8079C42.1392 19.0086 42.4596 10.1898 41.0724 4.60605Z" fill="#FF0000"/>
<path d="M16.8032 21.0102L27.6852 14.7072L16.8032 8.4043V21.0102Z" fill="white"/>
</g>
<defs>
<clipPath id="clip0_343_579">
<rect width="42" height="29" fill="white"/>
</clipPath>
</defs>
</svg>
