<svg width="178" height="177" viewBox="0 0 178 177" fill="none" xmlns="http://www.w3.org/2000/svg">
<path d="M35.3098 37.5918C35.3018 36.0873 33.9186 34.7545 32.3884 34.7766C31.0193 34.797 29.729 36.0121 29.7387 37.2723C29.7653 40.7929 35.3275 41.1141 35.3098 37.5918ZM31.0122 37.1891C31.0804 35.5333 33.9681 35.8201 33.9371 37.4909C33.9017 39.3857 30.9335 39.0822 31.0122 37.1891Z" fill="#263238"/>
<path d="M16.8557 40.1581C18.223 40.1856 19.5072 39.0023 19.5275 37.6978C19.5806 34.2729 14.4724 34.1534 14.3662 37.5102C14.3255 38.8023 15.5769 40.1325 16.8557 40.1581ZM16.9088 36.2535C17.5301 36.211 18.0867 36.8013 18.1089 37.5235C18.1602 39.1829 15.8433 39.2546 15.7309 37.6067C15.6902 37.0058 16.2875 36.296 16.9088 36.2535Z" fill="#263238"/>
<path d="M24.9207 40.085C26.2216 40.0832 27.4182 38.8699 27.4013 37.5716C27.3624 34.5139 22.5161 34.121 22.548 37.6194C22.5604 38.961 23.6197 40.0868 24.9207 40.085ZM26.288 37.4646C26.2739 39.401 23.3896 39.469 23.4082 37.43C23.4242 35.7671 26.3013 35.5627 26.288 37.4646Z" fill="#263238"/>
<path d="M162.522 30.8464C142.46 29.8817 10.2112 31.1269 10.189 31.1269C8.98013 31.1375 8.03583 31.0959 7.90574 34.5085C7.71546 39.5176 7.39863 52.0342 7.37031 83.1968C7.33757 119.372 7.28889 118.213 7.56147 119.435C7.88627 120.892 8.08539 120.755 13.1529 120.832C21.8348 120.962 35.4876 121.016 51.169 121.021C51.8407 120.148 52.5345 119.246 53.2469 118.313C30.2051 118.482 13.3582 118.707 10.7236 118.858C9.13412 118.949 9.17306 119.388 9.42705 108.341C13.6228 108.46 34.8832 108.58 60.6057 108.673C61.4571 107.736 62.3855 106.914 63.4191 106.375C36.5461 106.214 13.9441 106.125 9.47573 106.225C9.70317 95.9329 10.0191 77.3301 9.6306 43.7621C9.60936 41.8929 10.0315 43.2974 30.352 42.7293C33.2442 42.6487 141.446 41.6947 168.785 41.6726C168.708 48.2818 168.432 101.531 168.543 107.211C163.606 107.126 139.396 106.91 111.252 106.7C110.033 107.479 108.767 108.18 107.461 108.8C137.304 108.856 163.569 108.855 168.573 108.756C168.762 118.347 168.722 118.329 166.726 118.307C139.683 118.024 106.136 118.038 77.0579 118.17C76.687 119.007 76.1605 119.931 75.4719 120.994C119.509 120.902 167.437 120.581 167.771 120.549C169.045 120.424 169.947 119.658 170.004 118.634C170.717 105.905 170.687 58.7973 170.67 40.3619C170.66 30.7959 172.391 30.7968 162.522 30.8464ZM168.803 40.146C151.762 40.2088 21.1524 41.1257 11.5873 41.5221C9.53679 41.6071 9.54564 41.5646 9.51644 39.5415C9.42882 33.5049 8.97393 33.3438 10.8891 33.366C24.9243 33.5235 156.699 33.0465 168.329 33.0465C168.747 33.5412 168.845 35.1183 168.803 40.146Z" fill="#263238"/>
<path d="M54.7311 88.1822C55.7585 88.3512 54.6983 92.6876 55.6771 100.56C56.0816 103.812 59.1092 103.575 62.25 102.643C62.858 102.462 63.2005 101.954 63.2846 101.246C63.489 99.5358 63.3926 95.6055 63.389 95.5834L63.4253 94.9718C59.5587 88.3397 58.2994 81.0509 59.149 74.1063C52.6345 74.0806 56.7701 82.8315 54.3337 82.7041C50.945 82.5271 45.92 82.3315 42.8349 82.3748C43.5588 80.5535 51.6663 64.8819 52.261 63.4305C53.4814 60.4534 53 58.6728 49.9804 57.5594C47.105 56.4992 46.028 58.9967 44.773 60.8136C39.2489 68.8096 36.2124 75.3816 34.4628 78.7481C33.2725 81.0376 31.2732 85.7175 33.6026 86.829C37.1142 88.506 54.0832 88.1247 54.7302 88.1813L54.7311 88.1822Z" fill="url(#paint0_linear_343_582)"/>
<path d="M126.732 73.6399C129.065 69.0317 131.522 64.2058 131.84 63.4305C133.061 60.4534 132.579 58.6728 129.56 57.5594C126.684 56.4992 125.607 58.9967 124.352 60.8136C123.974 61.3605 123.609 61.9004 123.254 62.4331C125.032 65.8926 126.229 69.6777 126.732 73.6399Z" fill="url(#paint1_linear_343_582)"/>
<path d="M146.211 83.9785C144.406 82.2767 143.142 83.4422 143.139 82.3244C143.134 80.6615 142.989 78.9986 142.658 77.38C142.258 75.4214 141.649 74.4161 139.818 74.1824C131.77 73.1576 136.474 82.8386 133.913 82.705C131.846 82.597 129.172 82.482 126.699 82.4191C126.438 84.3971 126.018 86.3034 125.453 88.1292C129.966 88.2283 134 88.1557 134.31 88.1831C135.338 88.3522 134.277 92.6885 135.256 100.561C135.661 103.813 138.688 103.576 141.829 102.644C142.437 102.463 142.779 101.954 142.864 101.247C143.068 99.5366 142.973 95.6063 142.968 95.5842C143.405 88.2964 143.023 88.1752 143.922 88.1274C146.164 88.0079 147.868 85.5423 146.211 83.9785Z" fill="url(#paint2_linear_343_582)"/>
<path d="M148.877 59.1223C141.93 58.9179 140.52 59.4551 140.66 58.0674C141.205 52.645 144.274 55.4513 144.833 54.0778C145.531 52.36 147.22 51.2325 149.028 51.2555C150.059 51.2688 149.978 52.175 151.461 50.9325C153.229 49.4492 155.987 49.9608 157.177 51.9264C157.572 52.5786 157.945 52.9131 158.799 52.8547C161.59 52.6609 162.767 55.4876 162.612 57.4213C162.538 58.3346 162.055 58.5594 161.32 58.6099C157.176 58.8966 153.036 59.2444 148.876 59.1223H148.877ZM160.448 57.6851C160.957 57.6851 161.398 57.562 161.315 56.9222C161.131 55.5035 160.435 53.8167 158.329 54.138C156.826 54.3672 156.613 53.5424 156.11 52.7565C154.932 50.9157 152.509 50.9263 151.376 52.791C151.029 53.3627 150.599 53.491 150.145 53.0264C148.807 51.6555 145.971 53.2193 145.795 54.7884C145.504 57.3921 143.634 54.2539 142.098 56.6372C140.329 59.3825 144.928 57.6895 160.448 57.6851Z" fill="url(#paint3_linear_343_582)"/>
<path d="M22.0746 62.5965C14.0078 62.3947 13.7193 62.9912 14.0025 61.0053C14.3521 58.5521 15.8822 57.7219 17.3876 58.0361C17.8637 58.1352 18.0416 58.014 18.1832 57.5697C18.9797 55.0687 22.271 54.6634 22.479 54.7952C23.6127 55.5147 24.311 54.6306 25.2393 54.1925C27.1067 53.3111 29.5696 53.3155 30.7077 55.7909C30.9343 56.2829 31.2095 56.4635 31.7573 56.3829C35.9266 55.7678 37.101 61.9859 34.6752 62.1469C30.5095 62.4248 26.3535 62.7036 22.0754 62.5974L22.0746 62.5965ZM33.807 61.2168C35.8965 61.2177 34.1584 57.2936 31.9016 57.6909C30.6555 57.9104 29.7316 57.3069 29.3183 56.1103C28.7873 54.5757 25.4694 54.6377 24.7614 56.1342C24.349 57.0051 24.0685 57.0644 23.2985 56.4281C21.9409 55.3068 19.2125 56.913 19.0903 58.2768C18.8461 61.0168 16.8858 57.6777 15.4079 60.1937C13.8016 62.9284 17.6938 61.2097 33.807 61.2168Z" fill="url(#paint4_linear_343_582)"/>
<path d="M54.2381 53.3927C47.0024 53.2113 47.1059 53.7582 47.3254 51.8714C47.4865 50.4837 48.329 49.7076 49.7211 49.758C50.2831 49.7784 50.568 49.6129 50.8123 49.0925C51.5424 47.5429 53.3514 46.826 55.0054 47.3889C55.2869 47.4845 55.4152 47.4314 55.617 47.2384C57.3852 45.5525 59.6933 45.8959 60.8889 48.0393C61.1155 48.4456 61.3535 48.4146 61.7305 48.3792C64.3767 48.1287 65.3298 50.6041 65.1042 52.3865C65.0493 52.8237 64.6909 52.9396 64.2696 52.9741C60.8279 53.2573 57.3914 53.4706 54.2373 53.3909L54.2381 53.3927ZM55.2559 52.5086C56.0241 52.5228 62.2863 52.3307 63.0545 52.3086C63.9439 52.2829 64.0758 52.1245 63.9457 51.3422C63.7041 49.889 62.9005 49.2075 61.4261 49.4403C60.4004 49.6023 60.2323 48.935 59.8021 48.2898C58.88 46.9074 57.01 46.8915 56.0701 48.2694C55.7064 48.8022 55.3037 48.9164 54.8169 48.4659C53.962 47.6756 51.6982 48.3553 51.3787 50.1616C51.1619 51.3908 50.5026 50.612 49.5299 50.689C48.8759 50.7404 48.1927 51.4917 48.2697 52.1183C48.4122 53.2812 49.622 52.4024 55.2559 52.5086Z" fill="url(#paint5_linear_343_582)"/>
<path d="M92.8569 109.781C82.89 109.854 79.173 105.871 78.6146 106.894C76.4967 110.773 74.2356 112.399 74.9011 113.437C76.626 116.128 75.1268 118.046 67.2476 128.613C64.8732 131.798 62.0828 134.633 59.5224 137.66C55.2868 142.667 52.3345 148.24 47.3342 146.167C41.1755 143.615 41.4419 138.153 42.9075 135.777C45.9333 130.871 49.5556 127.137 60.4853 112.3C62.8085 109.147 64.6431 107.3 67.1246 108.063C67.7954 108.269 67.4689 108.219 71.2885 101.87C71.7576 101.092 68.6999 99.8084 65.4325 94.0665C58.556 81.9828 60.288 68.1175 67.6352 58.5621C81.7528 40.2037 109.843 42.5065 120.882 62.6376C132.392 83.6253 117.602 109.599 92.8569 109.781ZM63.1315 77.8923C63.02 93.662 75.6728 107.629 92.8976 107.657C109.077 107.682 122.36 94.8046 122.463 78.0631C122.562 62.011 109.8 48.5731 93.156 48.3873C76.8702 48.2059 63.2492 61.1525 63.1315 77.8923ZM43.6739 139.496C43.7367 141.804 44.6952 143.317 48.0714 144.661C51.4468 146.006 53.2168 142.449 58.2826 136.468C61.5349 132.628 65.1652 129.112 68.0069 124.919C74.5506 115.262 76.9835 115.492 67.6282 110.471C65.8697 109.527 64.8201 109.682 63.5049 111.135C58.4481 116.717 56.3515 120.581 53.4682 124.287C44.4058 135.938 43.5995 136.742 43.6739 139.496ZM73.6639 112.002C75.4055 108.217 77.9535 106.11 77.0985 105.642C75.3569 104.689 74.1993 103.855 72.6178 102.556C71.3938 104.779 70.1124 106.739 68.6733 108.835C70.5938 109.769 72.108 110.401 73.6639 112.002Z" fill="#263238"/>
<path d="M118.324 78.5075C118.117 92.4798 107.218 103.467 93.4162 103.818C78.3853 104.199 67.8122 92.1603 67.2644 79.4651C66.6042 64.1475 79.0447 53.1868 91.8648 52.7292C106.928 52.1911 118.538 63.9236 118.323 78.5075H118.324ZM92.4975 54.37C79.1809 54.4205 68.9972 64.8511 69.1866 78.1588C69.3831 91.9488 80.3987 101.273 92.6993 101.223C106.194 101.168 116.444 90.177 116.089 77.2968C115.734 64.4156 104.908 54.3231 92.4975 54.37Z" fill="#263238"/>
<path d="M103.785 84.4227C101.562 84.4227 101.589 84.5148 101.48 86.5742C101.315 89.7086 101.012 92.4088 98.8271 93.7018C97.4509 94.516 95.6243 93.9531 94.8083 92.5168C94.2331 91.5043 94.1207 90.3857 94.0127 89.2644C93.68 85.8263 93.9888 85.6573 93.156 85.9458C84.9008 88.8059 82.7608 91.8849 82.1104 91.0707C81.8519 90.7467 82.1413 90.4476 82.3325 90.2122C87.8044 83.4793 103.511 81.4757 106.106 83.1359C106.612 83.459 106.74 84.0085 105.95 84.2696C105.219 84.5121 104.457 84.3209 103.784 84.4218L103.785 84.4227ZM98.243 87.1768C98.3944 90.9255 96.95 90.2804 96.8226 86.5317C96.7677 84.9272 96.7845 84.9369 95.2738 85.3626C95.0057 85.4378 94.8455 85.5042 94.8933 85.8308C95.4526 89.6148 95.1287 91.7946 96.6332 92.4159C99.7245 93.692 99.644 88.2911 99.8139 85.8051C99.8953 84.6103 99.8989 84.6502 98.6855 84.8015C97.9209 84.8971 98.1563 85.0343 98.243 87.1768Z" fill="#263238"/>
<path d="M76.8357 75.9771C76.8508 75.6576 79.0173 73.0964 79.0571 73.0495C79.727 72.2822 79.1969 72.4583 77.5375 70.4441C77.2543 70.1007 76.911 69.6608 77.3375 69.2369C78.3571 68.2227 80.2598 71.7123 81.0607 70.7936C83.0794 68.4776 83.4626 68.2802 83.9423 68.6404C84.3388 68.9378 84.3149 69.3183 84.029 69.6936C83.4777 70.4157 83.0042 71.199 82.3422 71.8344C81.7617 72.3911 82.1431 72.3787 84.483 74.8664C85.3388 75.7762 84.3715 76.7364 83.4467 76.0205C80.7793 73.954 80.9652 73.4947 80.3872 74.1664C78.7659 76.0532 77.7615 77.1727 77.0889 76.7816C76.8552 76.6453 76.8172 76.4045 76.8375 75.9789L76.8357 75.9771Z" fill="#263238"/>
<path d="M106.69 71.7236C106.012 72.3811 106.314 72.3324 108.751 74.8821C109.586 75.7574 108.634 76.7079 107.743 76.045C105.064 74.0493 105.257 73.4387 104.619 74.1874C103.939 74.9865 102.023 77.4274 101.264 76.7026C100.742 76.2043 101.001 75.768 103.383 72.9705C104.07 72.1634 103.029 72.2776 101.686 70.304C101.021 69.3279 101.754 68.7101 102.64 69.2748C105.783 71.2811 103.995 72.0899 107.274 68.7677C107.957 68.0747 109.804 68.7022 106.691 71.7227L106.69 71.7236Z" fill="#263238"/>
<defs>
<linearGradient id="paint0_linear_343_582" x1="63.4253" y1="57.3062" x2="20.8728" y2="85.9242" gradientUnits="userSpaceOnUse">
<stop stop-color="#7570FF"/>
<stop offset="1" stop-color="#BC70FF"/>
</linearGradient>
<linearGradient id="paint1_linear_343_582" x1="132.462" y1="57.3062" x2="118.487" y2="65.1849" gradientUnits="userSpaceOnUse">
<stop stop-color="#7570FF"/>
<stop offset="1" stop-color="#BC70FF"/>
</linearGradient>
<linearGradient id="paint2_linear_343_582" x1="146.874" y1="74.1064" x2="119.058" y2="94.5509" gradientUnits="userSpaceOnUse">
<stop stop-color="#7570FF"/>
<stop offset="1" stop-color="#BC70FF"/>
</linearGradient>
<linearGradient id="paint3_linear_343_582" x1="162.625" y1="50.0752" x2="156.225" y2="65.5773" gradientUnits="userSpaceOnUse">
<stop stop-color="#7570FF"/>
<stop offset="1" stop-color="#BC70FF"/>
</linearGradient>
<linearGradient id="paint4_linear_343_582" x1="35.9252" y1="53.6582" x2="29.6602" y2="69.0292" gradientUnits="userSpaceOnUse">
<stop stop-color="#7570FF"/>
<stop offset="1" stop-color="#BC70FF"/>
</linearGradient>
<linearGradient id="paint5_linear_343_582" x1="65.1361" y1="46.1709" x2="60.102" y2="58.6069" gradientUnits="userSpaceOnUse">
<stop stop-color="#7570FF"/>
<stop offset="1" stop-color="#BC70FF"/>
</linearGradient>
</defs>
</svg>
